
<svg width="268" height="109" viewBox="0 0 268 109" fill="none" xmlns="http://www.w3.org/2000/svg">
<rect width="268" height="108.165" rx="8" fill="white"/>
<path d="M132.106 62.5574C131.881 62.7824 131.634 62.9705 131.377 63.1335C132.099 63.7115 133.003 64.0714 134.001 64.0714C136.333 64.0714 138.224 62.1804 138.224 59.8484V56.4404L132.106 62.5574Z" fill="black"/>
<path d="M134 54.702C134.839 54.702 135.518 54.0224 135.518 53.184C135.518 52.3457 134.839 51.666 134 51.666C133.162 51.666 132.482 52.3457 132.482 53.184C132.482 54.0224 133.162 54.702 134 54.702Z" fill="black"/>
<path d="M153.721 33.6062C152.072 31.9572 149.398 31.9572 147.749 33.6062L138.223 43.1322V17.3822C138.223 15.0502 136.332 13.1592 134 13.1592C131.668 13.1592 129.777 15.0502 129.777 17.3822V51.5782L125.914 55.4412C124.265 57.0902 124.265 59.7642 125.914 61.4132C127.563 63.0622 130.237 63.0622 131.886 61.4132L153.721 39.5782C155.37 37.9292 155.37 35.2552 153.721 33.6062ZM134 56.2852C132.287 56.2852 130.899 54.8972 130.899 53.1842C130.899 51.4712 132.287 50.0832 134 50.0832C135.713 50.0832 137.101 51.4712 137.101 53.1842C137.101 54.8972 135.713 56.2852 134 56.2852Z" fill="black"/>
<path d="M93.5534 66.8741C93.4804 66.6641 93.5934 66.4361 93.8044 66.3641C94.0144 66.2911 94.2494 66.4041 94.3234 66.6161C94.3884 66.8271 94.2744 67.0611 94.0644 67.1341C94.0244 67.1421 93.9834 67.1511 93.9434 67.1511C93.7714 67.1501 93.6094 67.0441 93.5534 66.8741ZM174.679 64.7761C174.46 64.7201 174.331 64.4931 174.395 64.2821C174.452 64.0631 174.679 63.9331 174.889 63.9981C175.108 64.0551 175.229 64.2821 175.173 64.4931C175.124 64.6711 174.962 64.7931 174.784 64.7931C174.751 64.7921 174.711 64.7841 174.679 64.7761ZM92.0864 61.3491C92.0464 61.1301 92.1914 60.9111 92.4104 60.8711C92.6294 60.8301 92.8404 60.9681 92.8804 61.1951H92.8884C92.9284 61.4141 92.7824 61.6251 92.5644 61.6651C92.5394 61.6731 92.5154 61.6731 92.4834 61.6731C92.2974 61.6731 92.1274 61.5351 92.0864 61.3491ZM175.853 59.2351C175.634 59.2101 175.48 59.0001 175.505 58.7821C175.537 58.5631 175.74 58.4011 175.967 58.4331C176.186 58.4651 176.34 58.6681 176.315 58.8871C176.283 59.0971 176.113 59.2431 175.91 59.2431C175.894 59.2431 175.878 59.2431 175.853 59.2351ZM91.3814 55.6701C91.3654 55.4441 91.5354 55.2571 91.7624 55.2411C91.9894 55.2321 92.1754 55.4031 92.1914 55.6221C92.1994 55.8491 92.0294 56.0431 91.8104 56.0521C91.8024 56.0521 91.7944 56.0521 91.7864 56.0521C91.5764 56.0511 91.3904 55.8891 91.3814 55.6701ZM175.878 53.1831C175.878 52.9561 176.064 52.7781 176.283 52.7781C176.51 52.7781 176.688 52.9561 176.688 53.1831C176.688 53.4091 176.51 53.5881 176.283 53.5881C176.064 53.5881 175.878 53.4101 175.878 53.1831ZM91.8034 50.3881C91.5844 50.3711 91.4144 50.1781 91.4304 49.9501C91.4464 49.7321 91.6414 49.5611 91.8604 49.5771C92.0874 49.5931 92.2574 49.7871 92.2414 50.0151C92.2254 50.2251 92.0474 50.3881 91.8364 50.3881C91.8274 50.3881 91.8114 50.3881 91.8034 50.3881ZM175.602 48.3151C175.577 48.0881 175.731 47.8931 175.958 47.8611C176.177 47.8361 176.379 47.9991 176.403 48.2181C176.427 48.4441 176.273 48.6471 176.047 48.6711C176.031 48.6711 176.015 48.6711 175.998 48.6711C175.797 48.6711 175.626 48.5171 175.602 48.3151ZM92.5484 44.7741C92.3294 44.7251 92.1914 44.5071 92.2404 44.2871C92.2814 44.0691 92.4994 43.9311 92.7184 43.9791C92.9374 44.0191 93.0744 44.2391 93.0264 44.4571C92.9854 44.6521 92.8244 44.7811 92.6294 44.7811C92.6054 44.7821 92.5804 44.7741 92.5484 44.7741ZM174.581 42.7971C174.524 42.5781 174.654 42.3591 174.873 42.3031C175.092 42.2461 175.31 42.3761 175.367 42.5951C175.424 42.8141 175.294 43.0331 175.075 43.0891C175.042 43.0971 175.01 43.0971 174.97 43.0971C174.792 43.0971 174.63 42.9761 174.581 42.7971ZM94.0394 39.3051C93.8364 39.2241 93.7234 38.9971 93.7964 38.7871C93.8774 38.5761 94.1044 38.4631 94.3154 38.5441C94.5264 38.6171 94.6394 38.8441 94.5584 39.0541V39.0621C94.5014 39.2241 94.3474 39.3291 94.1774 39.3291C94.1364 39.3301 94.0874 39.3221 94.0394 39.3051ZM172.831 37.4661C172.742 37.2561 172.847 37.0211 173.05 36.9401C173.261 36.8591 173.496 36.9561 173.585 37.1591C173.666 37.3701 173.569 37.6051 173.358 37.6941C173.309 37.7101 173.261 37.7181 173.204 37.7181C173.05 37.7181 172.896 37.6201 172.831 37.4661ZM96.2584 34.0881C96.0644 33.9831 95.9834 33.7401 96.0884 33.5371C96.1944 33.3421 96.4374 33.2611 96.6314 33.3671C96.8344 33.4731 96.9074 33.7161 96.8094 33.9101C96.7364 34.0551 96.5904 34.1291 96.4444 34.1291C96.3804 34.1291 96.3234 34.1211 96.2584 34.0881ZM170.377 32.4191C170.272 32.2331 170.337 31.9811 170.531 31.8681C170.726 31.7621 170.976 31.8271 171.082 32.0221C171.195 32.2161 171.131 32.4601 170.936 32.5731C170.871 32.6141 170.798 32.6301 170.733 32.6301C170.596 32.6301 170.458 32.5571 170.377 32.4191ZM99.1594 29.2111C98.9734 29.0821 98.9324 28.8311 99.0624 28.6521C99.1924 28.4661 99.4434 28.4251 99.6214 28.5551C99.8074 28.6851 99.8484 28.9361 99.7184 29.1141C99.6454 29.2271 99.5154 29.2921 99.3864 29.2921C99.3054 29.2921 99.2244 29.2681 99.1594 29.2111ZM167.274 27.7531C167.144 27.5751 167.177 27.3151 167.355 27.1861C167.533 27.0481 167.784 27.0811 167.922 27.2591C168.052 27.4371 168.019 27.6881 167.841 27.8261C167.768 27.8831 167.687 27.9071 167.598 27.9071C167.477 27.9071 167.355 27.8591 167.274 27.7531ZM102.675 24.7721C102.513 24.6181 102.504 24.3671 102.651 24.2051C102.805 24.0351 103.064 24.0271 103.226 24.1811C103.388 24.3351 103.404 24.5861 103.25 24.7561C103.169 24.8371 103.064 24.8861 102.95 24.8861C102.853 24.8851 102.756 24.8451 102.675 24.7721ZM163.58 23.5331C163.418 23.3791 163.418 23.1201 163.58 22.9581C163.734 22.8041 163.993 22.8041 164.147 22.9581C164.309 23.1201 164.309 23.3791 164.147 23.5331C164.066 23.6141 163.969 23.6551 163.863 23.6551C163.758 23.6541 163.653 23.6141 163.58 23.5331ZM106.758 20.8431C106.612 20.6731 106.637 20.4141 106.807 20.2761C106.977 20.1301 107.237 20.1551 107.382 20.3251C107.52 20.4951 107.496 20.7541 107.325 20.9001C107.252 20.9571 107.155 20.9891 107.066 20.9891C106.952 20.9891 106.831 20.9401 106.758 20.8431ZM159.351 19.8461C159.173 19.7081 159.132 19.4571 159.27 19.2791C159.408 19.1011 159.659 19.0601 159.837 19.1981C160.015 19.3361 160.048 19.5871 159.918 19.7651C159.837 19.8701 159.715 19.9271 159.594 19.9271C159.505 19.9271 159.424 19.9031 159.351 19.8461ZM111.319 17.4891C111.198 17.2941 111.254 17.0511 111.448 16.9301C111.634 16.8081 111.886 16.8731 112.007 17.0591C112.12 17.2451 112.064 17.4971 111.877 17.6181C111.804 17.6591 111.731 17.6751 111.658 17.6751C111.529 17.6751 111.392 17.6111 111.319 17.4891ZM154.668 16.7521C154.474 16.6391 154.401 16.3871 154.514 16.2011C154.627 16.0071 154.87 15.9341 155.065 16.0471C155.259 16.1521 155.324 16.4031 155.219 16.5981C155.146 16.7281 155.008 16.8001 154.863 16.8001C154.798 16.8001 154.725 16.7841 154.668 16.7521ZM116.285 14.7751C116.196 14.5731 116.285 14.3291 116.487 14.2401C116.689 14.1431 116.932 14.2401 117.022 14.4431C117.119 14.6451 117.022 14.8891 116.82 14.9781C116.771 15.0021 116.714 15.0101 116.658 15.0101C116.504 15.0101 116.358 14.9211 116.285 14.7751ZM149.613 14.3131C149.402 14.2241 149.305 13.9891 149.386 13.7861C149.467 13.5761 149.702 13.4781 149.913 13.5591C150.115 13.6401 150.221 13.8751 150.14 14.0851C150.075 14.2391 149.921 14.3361 149.759 14.3361C149.71 14.3381 149.662 14.3291 149.613 14.3131ZM121.583 12.7501C121.518 12.5391 121.64 12.3121 121.85 12.2481C122.069 12.1831 122.295 12.3051 122.352 12.5231C122.417 12.7341 122.295 12.9611 122.085 13.0251C122.044 13.0331 122.004 13.0411 121.963 13.0411C121.794 13.0411 121.632 12.9281 121.583 12.7501ZM144.274 12.5711C144.055 12.5141 143.926 12.2961 143.975 12.0771C144.032 11.8671 144.25 11.7291 144.469 11.7851C144.688 11.8421 144.817 12.0601 144.761 12.2791C144.721 12.4651 144.551 12.5871 144.372 12.5871C144.339 12.5881 144.307 12.5801 144.274 12.5711ZM127.092 11.4541C127.06 11.2351 127.213 11.0331 127.432 10.9921C127.651 10.9601 127.862 11.1141 127.894 11.3321C127.926 11.5511 127.78 11.7611 127.554 11.7941C127.538 11.8021 127.513 11.8021 127.497 11.8021C127.294 11.8021 127.124 11.6561 127.092 11.4541ZM138.75 11.5671V11.5751C138.531 11.5421 138.369 11.3481 138.394 11.1211C138.418 10.9021 138.621 10.7401 138.848 10.7651C139.067 10.7901 139.229 10.9921 139.204 11.2111C139.18 11.4211 139.002 11.5751 138.799 11.5751C138.782 11.5751 138.766 11.5751 138.75 11.5671ZM132.73 10.9191C132.73 10.6921 132.908 10.5061 133.127 10.5061C133.354 10.4981 133.54 10.6761 133.54 10.9031C133.548 11.1221 133.37 11.3081 133.143 11.3161C133.143 11.3161 133.143 11.3161 133.135 11.3161C132.917 11.3161 132.738 11.1371 132.73 10.9191Z" fill="black"/>
<path d="M134 8C109.085 8 88.8154 28.27 88.8154 53.184C88.8154 57.803 89.5124 62.363 90.8874 66.739C90.9684 66.998 91.2084 67.165 91.4664 67.165C91.5264 67.165 91.5874 67.156 91.6484 67.137C91.9684 67.036 92.1464 66.695 92.0464 66.375C90.7094 62.117 90.0304 57.68 90.0304 53.184C90.0304 28.939 109.755 9.215 133.999 9.215C158.243 9.215 177.968 28.939 177.968 53.184C177.968 57.678 177.29 62.117 175.952 66.375C175.851 66.695 176.029 67.036 176.35 67.137C176.671 67.237 177.011 67.059 177.112 66.739C178.487 62.363 179.184 57.802 179.184 53.184C179.184 28.27 158.914 8 134 8Z" fill="black"/>
<path d="M25.4205 82.4841H21.5766C21.5064 81.9868 21.363 81.5451 21.1465 81.1589C20.9301 80.7669 20.6522 80.4334 20.3128 80.1584C19.9735 79.8835 19.5815 79.6728 19.1368 79.5266C18.698 79.3803 18.2212 79.3072 17.7063 79.3072C16.7761 79.3072 15.9657 79.5383 15.2754 80.0005C14.585 80.4568 14.0496 81.1238 13.6693 82.0014C13.289 82.8732 13.0989 83.9321 13.0989 85.1783C13.0989 86.4597 13.289 87.5362 13.6693 88.4079C14.0555 89.2797 14.5938 89.9379 15.2841 90.3826C15.9745 90.8272 16.7731 91.0495 17.68 91.0495C18.189 91.0495 18.66 90.9823 19.0929 90.8477C19.5318 90.7131 19.9208 90.5171 20.2602 90.2597C20.5995 89.9964 20.8803 89.6775 21.1027 89.3031C21.3308 88.9287 21.4888 88.5016 21.5766 88.0218L25.4205 88.0393C25.321 88.8643 25.0724 89.66 24.6745 90.4264C24.2825 91.187 23.753 91.8686 23.0861 92.4713C22.4249 93.068 21.6351 93.5419 20.7165 93.893C19.8038 94.2382 18.7712 94.4108 17.6186 94.4108C16.0155 94.4108 14.582 94.048 13.3183 93.3225C12.0604 92.597 11.0658 91.5468 10.3344 90.1719C9.60895 88.797 9.2462 87.1325 9.2462 85.1783C9.2462 83.2184 9.6148 81.5509 10.352 80.176C11.0892 78.8011 12.0896 77.7538 13.3534 77.0342C14.6172 76.3087 16.0389 75.9459 17.6186 75.9459C18.66 75.9459 19.6254 76.0922 20.5147 76.3847C21.4098 76.6773 22.2026 77.1044 22.893 77.666C23.5834 78.2219 24.145 78.9035 24.578 79.7109C25.0168 80.5183 25.2976 81.4427 25.4205 82.4841ZM30.9055 94.165H26.8334L33.0381 76.1917H37.9352L44.1311 94.165H40.059L35.5568 80.2989H35.4164L30.9055 94.165ZM30.651 87.1003H40.2696V90.0666H30.651V87.1003ZM46.2944 94.165V76.1917H50.0944V91.032H57.7998V94.165H46.2944ZM75.4748 82.4841H71.6309C71.5607 81.9868 71.4173 81.5451 71.2008 81.1589C70.9844 80.7669 70.7065 80.4334 70.3671 80.1584C70.0278 79.8835 69.6358 79.6728 69.1911 79.5266C68.7523 79.3803 68.2755 79.3072 67.7606 79.3072C66.8304 79.3072 66.02 79.5383 65.3296 80.0005C64.6393 80.4568 64.1039 81.1238 63.7236 82.0014C63.3433 82.8732 63.1532 83.9321 63.1532 85.1783C63.1532 86.4597 63.3433 87.5362 63.7236 88.4079C64.1098 89.2797 64.648 89.9379 65.3384 90.3826C66.0288 90.8272 66.8274 91.0495 67.7343 91.0495C68.2433 91.0495 68.7143 90.9823 69.1472 90.8477C69.586 90.7131 69.9751 90.5171 70.3145 90.2597C70.6538 89.9964 70.9346 89.6775 71.157 89.3031C71.3851 88.9287 71.5431 88.5016 71.6309 88.0218L75.4748 88.0393C75.3753 88.8643 75.1267 89.66 74.7288 90.4264C74.3368 91.187 73.8073 91.8686 73.1403 92.4713C72.4792 93.068 71.6894 93.5419 70.7708 93.893C69.8581 94.2382 68.8254 94.4108 67.6729 94.4108C66.0698 94.4108 64.6363 94.048 63.3726 93.3225C62.1147 92.597 61.1201 91.5468 60.3887 90.1719C59.6632 88.797 59.3005 87.1325 59.3005 85.1783C59.3005 83.2184 59.6691 81.5509 60.4063 80.176C61.1435 78.8011 62.1439 77.7538 63.4077 77.0342C64.6714 76.3087 66.0932 75.9459 67.6729 75.9459C68.7143 75.9459 69.6797 76.0922 70.569 76.3847C71.4641 76.6773 72.2569 77.1044 72.9473 77.666C73.6377 78.2219 74.1993 78.9035 74.6323 79.7109C75.0711 80.5183 75.3519 81.4427 75.4748 82.4841ZM89.3015 76.1917H93.1015V87.8638C93.1015 89.1744 92.7885 90.3211 92.1625 91.304C91.5423 92.287 90.6735 93.0534 89.556 93.6034C88.4385 94.1475 87.1367 94.4195 85.6506 94.4195C84.1587 94.4195 82.854 94.1475 81.7365 93.6034C80.619 93.0534 79.7502 92.287 79.13 91.304C78.5098 90.3211 78.1997 89.1744 78.1997 87.8638V76.1917H81.9998V87.5391C81.9998 88.2236 82.149 88.8321 82.4474 89.3645C82.7516 89.8969 83.1787 90.3153 83.7287 90.6195C84.2786 90.9237 84.9193 91.0759 85.6506 91.0759C86.3878 91.0759 87.0285 90.9237 87.5726 90.6195C88.1225 90.3153 88.5467 89.8969 88.8451 89.3645C89.1493 88.8321 89.3015 88.2236 89.3015 87.5391V76.1917ZM96.228 94.165V76.1917H100.028V91.032H107.733V94.165H96.228ZM110.25 94.165V76.1917H114.05V83.6074H121.764V76.1917H125.555V94.165H121.764V86.7405H114.05V94.165H110.25ZM128.688 94.165V76.1917H140.799V79.3247H132.488V83.6074H140.176V86.7405H132.488V91.032H140.835V94.165H128.688ZM154.922 76.1917H158.722V87.8638C158.722 89.1744 158.409 90.3211 157.783 91.304C157.163 92.287 156.294 93.0534 155.177 93.6034C154.059 94.1475 152.758 94.4195 151.271 94.4195C149.78 94.4195 148.475 94.1475 147.357 93.6034C146.24 93.0534 145.371 92.287 144.751 91.304C144.131 90.3211 143.821 89.1744 143.821 87.8638V76.1917H147.621V87.5391C147.621 88.2236 147.77 88.8321 148.068 89.3645C148.372 89.8969 148.8 90.3153 149.349 90.6195C149.899 90.9237 150.54 91.0759 151.271 91.0759C152.009 91.0759 152.649 90.9237 153.193 90.6195C153.743 90.3153 154.168 89.8969 154.466 89.3645C154.77 88.8321 154.922 88.2236 154.922 87.5391V76.1917ZM161.849 94.165V76.1917H168.94C170.297 76.1917 171.456 76.4345 172.415 76.9201C173.381 77.3998 174.115 78.0814 174.618 78.9649C175.127 79.8425 175.382 80.8752 175.382 82.0628C175.382 83.2564 175.124 84.2832 174.609 85.1432C174.094 85.9974 173.348 86.6527 172.371 87.1091C171.4 87.5654 170.224 87.7936 168.843 87.7936H164.095V84.7395H168.229C168.955 84.7395 169.557 84.6401 170.037 84.4412C170.517 84.2422 170.874 83.9438 171.108 83.546C171.347 83.1482 171.467 82.6538 171.467 82.0628C171.467 81.4661 171.347 80.9629 171.108 80.5534C170.874 80.1438 170.514 79.8337 170.028 79.6231C169.548 79.4066 168.943 79.2984 168.211 79.2984H165.649V94.165H161.849ZM171.555 85.9857L176.022 94.165H171.827L167.457 85.9857H171.555ZM178.067 94.165V76.1917H190.178V79.3247H181.867V83.6074H189.555V86.7405H181.867V91.032H190.213V94.165H178.067ZM202.949 81.3608C202.879 80.6528 202.578 80.1029 202.045 79.7109C201.513 79.3189 200.79 79.1229 199.878 79.1229C199.258 79.1229 198.734 79.2106 198.307 79.3861C197.88 79.5558 197.552 79.7928 197.324 80.097C197.102 80.4012 196.99 80.7464 196.99 81.1326C196.979 81.4544 197.046 81.7352 197.192 81.9751C197.344 82.215 197.552 82.4227 197.815 82.5982C198.079 82.7679 198.383 82.917 198.728 83.0458C199.073 83.1686 199.442 83.2739 199.834 83.3617L201.449 83.7478C202.233 83.9234 202.952 84.1574 203.608 84.4499C204.263 84.7425 204.83 85.1023 205.31 85.5294C205.79 85.9565 206.161 86.4597 206.425 87.0389C206.694 87.6181 206.831 88.2821 206.837 89.031C206.831 90.131 206.55 91.0846 205.995 91.892C205.445 92.6936 204.649 93.3167 203.608 93.7613C202.572 94.2001 201.323 94.4195 199.86 94.4195C198.409 94.4195 197.145 94.1972 196.069 93.7526C194.998 93.3079 194.162 92.6497 193.559 91.7779C192.962 90.9003 192.649 89.815 192.62 88.522H196.297C196.338 89.1247 196.511 89.6278 196.815 90.0315C197.125 90.4294 197.537 90.7307 198.052 90.9354C198.573 91.1344 199.161 91.2338 199.816 91.2338C200.46 91.2338 201.019 91.1402 201.492 90.953C201.972 90.7658 202.344 90.5054 202.607 90.1719C202.87 89.8384 203.002 89.4552 203.002 89.0223C203.002 88.6186 202.882 88.2792 202.642 88.0042C202.408 87.7293 202.063 87.4952 201.607 87.3022C201.156 87.1091 200.603 86.9336 199.948 86.7756L197.991 86.2841C196.476 85.9155 195.279 85.3392 194.401 84.5552C193.524 83.7713 193.088 82.7152 193.094 81.3871C193.088 80.2989 193.378 79.3481 193.963 78.5349C194.554 77.7216 195.364 77.0868 196.394 76.6305C197.423 76.1741 198.593 75.9459 199.904 75.9459C201.238 75.9459 202.402 76.1741 203.397 76.6305C204.397 77.0868 205.176 77.7216 205.731 78.5349C206.287 79.3481 206.574 80.2901 206.591 81.3608H202.949ZM209.393 94.165V76.1917H216.484C217.847 76.1917 219.009 76.452 219.968 76.9727C220.928 77.4876 221.659 78.2043 222.162 79.1229C222.671 80.0356 222.926 81.0887 222.926 82.2822C222.926 83.4758 222.668 84.5289 222.154 85.4416C221.639 86.3543 220.893 87.0652 219.916 87.5742C218.944 88.0832 217.768 88.3377 216.388 88.3377H211.868V85.2924H215.773C216.505 85.2924 217.107 85.1666 217.581 84.9151C218.061 84.6576 218.418 84.3037 218.652 83.8532C218.892 83.3968 219.012 82.8732 219.012 82.2822C219.012 81.6855 218.892 81.1648 218.652 80.7201C218.418 80.2696 218.061 79.9215 217.581 79.6758C217.101 79.4242 216.493 79.2984 215.756 79.2984H213.193V94.165H209.393ZM225.394 94.165V76.1917H232.485C233.843 76.1917 235.001 76.4345 235.96 76.9201C236.926 77.3998 237.66 78.0814 238.163 78.9649C238.672 79.8425 238.927 80.8752 238.927 82.0628C238.927 83.2564 238.669 84.2832 238.155 85.1432C237.64 85.9974 236.894 86.6527 235.917 87.1091C234.945 87.5654 233.769 87.7936 232.389 87.7936H227.641V84.7395H231.774C232.5 84.7395 233.102 84.6401 233.582 84.4412C234.062 84.2422 234.419 83.9438 234.653 83.546C234.893 83.1482 235.013 82.6538 235.013 82.0628C235.013 81.4661 234.893 80.9629 234.653 80.5534C234.419 80.1438 234.059 79.8337 233.573 79.6231C233.094 79.4066 232.488 79.2984 231.757 79.2984H229.194V94.165H225.394ZM235.1 85.9857L239.567 94.165H235.372L231.002 85.9857H235.1ZM258.129 85.1783C258.129 87.1383 257.757 88.8058 257.014 90.1807C256.277 91.5556 255.271 92.6058 253.995 93.3313C252.726 94.051 251.298 94.4108 249.713 94.4108C248.115 94.4108 246.682 94.048 245.412 93.3225C244.143 92.597 243.139 91.5468 242.402 90.1719C241.665 88.797 241.296 87.1325 241.296 85.1783C241.296 83.2184 241.665 81.5509 242.402 80.176C243.139 78.8011 244.143 77.7538 245.412 77.0342C246.682 76.3087 248.115 75.9459 249.713 75.9459C251.298 75.9459 252.726 76.3087 253.995 77.0342C255.271 77.7538 256.277 78.8011 257.014 80.176C257.757 81.5509 258.129 83.2184 258.129 85.1783ZM254.276 85.1783C254.276 83.9087 254.086 82.8381 253.706 81.9663C253.331 81.0946 252.802 80.4334 252.117 79.9829C251.433 79.5324 250.631 79.3072 249.713 79.3072C248.794 79.3072 247.992 79.5324 247.308 79.9829C246.623 80.4334 246.091 81.0946 245.711 81.9663C245.336 82.8381 245.149 83.9087 245.149 85.1783C245.149 86.448 245.336 87.5186 245.711 88.3904C246.091 89.2621 246.623 89.9233 247.308 90.3738C247.992 90.8243 248.794 91.0495 249.713 91.0495C250.631 91.0495 251.433 90.8243 252.117 90.3738C252.802 89.9233 253.331 89.2621 253.706 88.3904C254.086 87.5186 254.276 86.448 254.276 85.1783Z" fill="black"/>
</svg>
